<svg xmlns="http://www.w3.org/2000/svg" viewBox="0 0 200 48" width="200" height="48">
  <g transform="translate(4, 8)">
    <path d="M2 24 C2 20 4 18 8 17 L18 15 C22 14 25 12 27 9 C28 7 29 6 30 6 C32 6 32 8 31 10 L28 16 C27 18 28 20 30 20 L34 20 C36 20 36 22 34 23 L4 26 C3 26 2 25 2 24 Z" fill="#E63946"/>
    <ellipse cx="10" cy="26" rx="4" ry="2.5" fill="#111111"/>
    <ellipse cx="26" cy="23" rx="4" ry="2.5" fill="#111111"/>
  </g>
  <text x="48" y="32" font-family="Inter, Arial, sans-serif" font-size="20" font-weight="800" fill="#111111" letter-spacing="-0.5">Sole<tspan fill="#E63946">Step</tspan></text>
</svg>
